<svg id="svg" version="1.1" xmlns="http://www.w3.org/2000/svg" xmlns:xlink="http://www.w3.org/1999/xlink" width="25" height="25" viewBox="0, 0, 400,400"><g id="svgg"><path id="path0" d="M59.500 0.269 C 58.895 0.370,58.400 0.621,58.400 0.827 C 58.400 1.032,57.860 1.200,57.200 1.200 C 56.540 1.200,56.000 1.380,56.000 1.600 C 56.000 1.820,55.640 2.000,55.200 2.000 C 54.760 2.000,54.400 2.150,54.400 2.332 C 54.400 2.515,53.905 2.919,53.300 3.230 C 52.695 3.540,51.909 4.111,51.553 4.497 C 51.197 4.884,50.702 5.200,50.453 5.200 C 50.204 5.200,50.000 5.380,50.000 5.600 C 50.000 5.820,49.775 6.010,49.500 6.023 C 48.634 6.062,44.468 11.726,43.633 14.000 C 43.351 14.770,42.961 15.760,42.767 16.200 C 41.967 18.018,41.606 22.705,41.603 31.300 L 41.600 40.400 33.600 40.400 C 28.533 40.400,25.600 40.547,25.600 40.800 C 25.600 41.020,24.891 41.200,24.024 41.200 C 23.157 41.200,22.336 41.380,22.200 41.600 C 22.064 41.820,21.558 42.001,21.076 42.001 C 20.289 42.002,16.569 43.704,14.035 45.222 C 12.096 46.383,6.800 51.377,6.800 52.044 C 6.800 52.244,6.260 52.972,5.600 53.663 C 4.940 54.354,4.400 55.162,4.400 55.459 C 4.400 55.757,4.220 56.000,4.000 56.000 C 3.780 56.000,3.600 56.345,3.600 56.767 C 3.600 57.188,3.465 57.593,3.300 57.667 C 2.812 57.884,1.200 61.213,1.200 62.004 C 1.200 62.405,0.975 62.808,0.700 62.900 C -0.036 63.145,-0.036 377.255,0.700 377.500 C 0.975 377.592,1.200 378.192,1.200 378.833 C 1.200 379.475,1.380 380.000,1.600 380.000 C 1.820 380.000,2.000 380.360,2.000 380.800 C 2.000 381.240,2.180 381.600,2.400 381.600 C 2.620 381.600,2.800 381.960,2.800 382.400 C 2.800 382.840,2.980 383.200,3.200 383.200 C 3.420 383.200,3.600 383.560,3.600 384.000 C 3.600 384.440,3.750 384.800,3.932 384.800 C 4.115 384.800,4.520 385.289,4.832 385.888 C 6.074 388.266,11.734 393.926,14.112 395.168 C 14.711 395.480,15.200 395.885,15.200 396.068 C 15.200 396.250,15.560 396.400,16.000 396.400 C 16.440 396.400,16.800 396.580,16.800 396.800 C 16.800 397.020,17.160 397.200,17.600 397.200 C 18.040 397.200,18.400 397.380,18.400 397.600 C 18.400 397.820,18.760 398.000,19.200 398.000 C 19.640 398.000,20.000 398.180,20.000 398.400 C 20.000 398.620,20.525 398.800,21.167 398.800 C 21.808 398.800,22.408 399.025,22.500 399.300 C 22.745 400.036,377.255 400.036,377.500 399.300 C 377.592 399.025,378.192 398.800,378.833 398.800 C 379.475 398.800,380.000 398.620,380.000 398.400 C 380.000 398.180,380.360 398.000,380.800 398.000 C 381.240 398.000,381.600 397.820,381.600 397.600 C 381.600 397.380,381.960 397.200,382.400 397.200 C 382.840 397.200,383.200 397.020,383.200 396.800 C 383.200 396.580,383.560 396.400,384.000 396.400 C 384.440 396.400,384.800 396.220,384.800 396.000 C 384.800 395.780,385.070 395.600,385.400 395.600 C 385.730 395.600,386.000 395.420,386.000 395.200 C 386.000 394.980,386.177 394.800,386.393 394.800 C 387.434 394.800,393.994 388.137,395.168 385.888 C 395.480 385.289,395.885 384.800,396.068 384.800 C 396.250 384.800,396.400 384.440,396.400 384.000 C 396.400 383.560,396.580 383.200,396.800 383.200 C 397.020 383.200,397.200 382.840,397.200 382.400 C 397.200 381.960,397.380 381.600,397.600 381.600 C 397.820 381.600,398.000 381.240,398.000 380.800 C 398.000 380.360,398.180 380.000,398.400 380.000 C 398.620 380.000,398.800 379.475,398.800 378.833 C 398.800 378.192,399.025 377.592,399.300 377.500 C 400.036 377.255,400.036 63.145,399.300 62.900 C 399.025 62.808,398.800 62.405,398.800 62.004 C 398.800 61.213,397.188 57.884,396.700 57.667 C 396.535 57.593,396.400 57.188,396.400 56.767 C 396.400 56.345,396.220 56.000,396.000 56.000 C 395.780 56.000,395.600 55.757,395.600 55.459 C 395.600 55.162,395.060 54.354,394.400 53.663 C 393.740 52.972,393.200 52.244,393.200 52.044 C 393.200 50.928,384.957 44.000,383.628 44.000 C 383.393 44.000,383.200 43.820,383.200 43.600 C 383.200 43.380,382.951 43.200,382.646 43.200 C 382.341 43.200,381.576 42.931,380.946 42.602 C 380.316 42.274,379.406 42.004,378.924 42.002 C 378.442 42.001,377.936 41.820,377.800 41.600 C 377.664 41.380,376.944 41.200,376.200 41.200 C 375.456 41.200,374.736 41.020,374.600 40.800 C 374.449 40.555,371.263 40.400,366.376 40.400 L 358.400 40.400 358.400 29.624 C 358.400 22.871,358.251 18.755,358.000 18.600 C 357.780 18.464,357.600 17.949,357.600 17.456 C 357.600 16.963,357.451 16.389,357.270 16.180 C 357.088 15.971,356.701 15.040,356.409 14.110 C 356.117 13.181,355.591 12.091,355.239 11.689 C 354.888 11.286,354.420 10.674,354.200 10.329 C 352.975 8.409,350.933 6.029,350.500 6.016 C 350.225 6.007,350.000 5.820,350.000 5.600 C 350.000 5.380,349.818 5.200,349.596 5.200 C 349.374 5.200,348.628 4.660,347.937 4.000 C 347.246 3.340,346.438 2.800,346.141 2.800 C 345.843 2.800,345.600 2.620,345.600 2.400 C 345.600 2.180,345.240 2.000,344.800 2.000 C 344.360 2.000,344.000 1.820,344.000 1.600 C 344.000 1.380,343.475 1.200,342.833 1.200 C 342.192 1.200,341.592 0.975,341.500 0.700 C 341.374 0.321,339.271 0.200,332.800 0.200 C 326.329 0.200,324.226 0.321,324.100 0.700 C 324.008 0.975,323.408 1.200,322.767 1.200 C 322.125 1.200,321.600 1.380,321.600 1.600 C 321.600 1.820,321.280 2.000,320.888 2.000 C 320.497 2.000,319.917 2.360,319.600 2.800 C 319.283 3.240,318.793 3.600,318.512 3.600 C 318.089 3.600,315.907 5.426,314.200 7.210 C 313.980 7.440,313.215 8.190,312.500 8.878 C 311.785 9.566,311.200 10.355,311.200 10.631 C 311.200 10.907,311.057 11.193,310.881 11.267 C 310.331 11.497,308.709 15.331,308.497 16.900 C 308.386 17.725,308.138 18.400,307.947 18.400 C 307.756 18.400,307.600 23.350,307.600 29.400 L 307.600 40.400 266.800 40.400 L 226.000 40.400 226.000 32.024 C 226.000 27.417,225.846 23.552,225.658 23.436 C 225.470 23.320,225.218 21.824,225.099 20.112 C 224.980 18.401,224.659 16.460,224.385 15.800 C 223.066 12.619,222.671 11.905,220.913 9.540 C 219.035 7.012,217.275 5.201,216.696 5.200 C 216.529 5.200,215.828 4.660,215.137 4.000 C 214.446 3.340,213.638 2.800,213.341 2.800 C 213.043 2.800,212.800 2.620,212.800 2.400 C 212.800 2.180,212.440 2.000,212.000 2.000 C 211.560 2.000,211.200 1.820,211.200 1.600 C 211.200 1.380,210.786 1.200,210.280 1.200 C 209.774 1.200,209.135 0.975,208.860 0.700 C 208.141 -0.019,191.540 -0.019,191.300 0.700 C 191.208 0.975,190.608 1.200,189.967 1.200 C 189.325 1.200,188.800 1.380,188.800 1.600 C 188.800 1.820,188.480 2.000,188.088 2.000 C 187.697 2.000,187.117 2.360,186.800 2.800 C 186.483 3.240,185.991 3.600,185.706 3.600 C 185.168 3.600,178.407 10.157,178.391 10.694 C 178.386 10.862,178.030 11.450,177.600 12.000 C 177.170 12.550,176.814 13.315,176.809 13.700 C 176.804 14.085,176.649 14.400,176.465 14.400 C 175.400 14.400,174.800 20.081,174.800 30.157 L 174.800 40.400 133.600 40.400 L 92.400 40.400 92.400 29.400 C 92.400 23.350,92.244 18.400,92.054 18.400 C 91.864 18.400,91.602 17.622,91.472 16.670 C 91.244 15.009,89.723 11.544,89.100 11.267 C 88.935 11.193,88.800 10.921,88.800 10.661 C 88.800 10.401,87.990 9.403,87.000 8.444 C 86.010 7.484,85.200 6.542,85.200 6.350 C 85.200 6.157,85.002 6.000,84.760 6.000 C 84.519 6.000,83.817 5.460,83.200 4.800 C 82.583 4.140,81.831 3.600,81.528 3.600 C 81.225 3.600,80.717 3.240,80.400 2.800 C 80.083 2.360,79.503 2.000,79.112 2.000 C 78.720 2.000,78.400 1.820,78.400 1.600 C 78.400 1.380,77.875 1.200,77.233 1.200 C 76.592 1.200,75.992 0.975,75.900 0.700 C 75.733 0.197,62.067 -0.162,59.500 0.269 M70.993 16.439 C 73.412 17.576,75.422 19.907,76.177 22.449 C 76.980 25.151,77.116 67.576,76.333 70.723 C 73.885 80.551,60.268 80.608,58.030 70.800 C 57.420 68.127,57.461 25.465,58.075 22.801 C 59.357 17.247,65.879 14.035,70.993 16.439 M203.688 16.352 C 205.785 17.251,207.604 18.984,208.641 21.072 C 209.904 23.614,210.015 69.207,208.766 72.284 C 205.667 79.920,195.094 80.115,191.568 72.600 C 190.860 71.091,190.817 69.633,190.813 47.000 L 190.808 23.000 191.751 21.000 C 193.934 16.370,199.067 14.371,203.688 16.352 M336.596 16.440 C 338.701 17.430,340.481 19.149,341.481 21.157 C 342.543 23.288,342.797 68.599,341.765 71.705 C 339.033 79.932,327.929 80.389,324.245 72.427 C 323.037 69.815,322.912 24.663,324.105 21.574 C 325.985 16.704,331.945 14.254,336.596 16.440 M42.433 65.400 C 42.575 70.764,42.864 74.825,43.174 75.800 C 50.619 99.210,82.377 99.683,90.884 76.510 C 91.628 74.484,91.754 73.107,91.905 65.300 L 92.077 56.400 133.639 56.400 L 175.200 56.400 175.207 63.900 C 175.218 75.893,176.679 80.309,182.587 86.208 C 195.954 99.553,218.072 94.215,223.840 76.252 C 224.784 73.310,224.904 72.209,225.099 64.700 L 225.313 56.400 266.657 56.400 L 308.000 56.400 308.000 64.136 C 308.000 72.907,308.609 76.371,310.855 80.371 C 322.103 100.402,350.961 97.046,357.039 75.000 C 357.511 73.287,357.756 70.282,357.896 64.500 L 358.092 56.400 364.237 56.400 C 373.112 56.400,376.816 57.929,380.863 63.264 C 384.549 68.123,384.400 66.458,384.400 102.711 L 384.400 134.400 309.049 134.400 C 227.098 134.400,232.373 134.254,229.904 136.589 C 225.662 140.600,227.428 147.626,233.160 149.545 C 234.157 149.879,254.500 150.000,309.460 150.000 L 384.400 150.000 384.400 244.582 L 384.400 339.164 383.465 341.740 C 381.627 346.803,377.855 350.475,372.573 352.342 L 370.147 353.200 200.000 353.200 L 29.853 353.200 27.427 352.342 C 22.076 350.451,18.349 346.724,16.458 341.373 L 15.600 338.947 15.600 244.473 L 15.600 150.000 90.540 150.000 C 145.500 150.000,165.843 149.879,166.840 149.545 C 173.724 147.240,174.569 138.236,168.183 135.234 L 166.409 134.400 91.004 134.400 L 15.600 134.400 15.600 103.020 C 15.600 66.799,15.509 67.726,19.552 62.655 C 23.398 57.832,27.188 56.400,35.800 56.515 L 42.200 56.600 42.433 65.400 M197.000 135.064 C 190.312 138.583,191.108 147.499,198.300 149.624 C 202.673 150.916,207.623 146.930,207.663 142.085 C 207.707 136.759,201.520 132.685,197.000 135.064 M194.620 177.645 C 187.956 179.937,186.880 181.322,178.000 199.033 C 169.581 215.826,171.223 213.899,164.575 214.774 C 162.829 215.003,158.970 215.555,156.000 215.999 C 153.030 216.444,149.250 216.998,147.600 217.231 C 138.285 218.545,137.648 218.695,134.754 220.246 C 123.225 226.424,122.326 240.087,132.774 250.353 C 152.854 270.083,152.485 269.688,152.251 271.200 C 151.867 273.689,151.251 277.341,150.800 279.800 C 150.558 281.120,150.198 283.190,150.000 284.400 C 149.802 285.610,149.095 289.840,148.428 293.800 C 146.402 305.827,147.248 310.040,152.776 315.454 C 158.969 321.519,166.498 321.938,176.291 316.760 C 183.958 312.708,187.542 310.823,192.400 308.290 C 195.150 306.856,197.980 305.349,198.688 304.941 L 199.977 304.200 202.888 305.704 C 204.490 306.531,207.600 308.163,209.800 309.329 C 230.949 320.544,231.292 320.686,236.344 320.296 C 245.750 319.571,252.803 312.096,252.799 302.858 C 252.798 300.514,252.467 298.157,250.742 288.200 C 250.513 286.880,250.179 284.900,250.000 283.800 C 249.821 282.700,249.477 280.675,249.237 279.300 C 248.997 277.925,248.637 275.765,248.439 274.500 C 248.240 273.235,247.943 271.675,247.779 271.034 C 247.493 269.917,247.987 269.371,259.531 258.034 C 272.811 244.992,273.385 244.236,274.426 238.411 C 275.928 230.007,269.947 220.828,261.600 218.727 C 259.639 218.233,257.526 217.903,243.000 215.826 C 235.960 214.819,229.995 213.919,229.744 213.827 C 229.343 213.679,225.982 207.049,218.476 191.600 C 212.237 178.757,204.518 174.242,194.620 177.645 M201.321 192.500 C 201.895 192.926,206.420 201.818,215.976 221.301 C 218.951 227.366,220.177 228.170,228.000 229.193 C 229.870 229.438,232.480 229.799,233.800 229.995 C 235.120 230.192,237.640 230.554,239.400 230.800 C 241.160 231.046,243.725 231.417,245.100 231.624 C 246.475 231.831,248.725 232.167,250.100 232.372 C 259.033 233.702,259.200 233.769,259.200 236.004 C 259.200 236.759,242.371 253.784,236.066 259.408 C 232.306 262.762,231.245 265.481,232.013 269.800 C 232.248 271.120,232.611 273.235,232.820 274.500 C 233.029 275.765,233.371 277.835,233.580 279.100 C 233.789 280.365,234.158 282.480,234.400 283.800 C 234.642 285.120,235.005 287.190,235.206 288.400 C 235.638 290.999,236.340 295.080,236.789 297.600 C 237.727 302.872,237.737 303.185,236.993 304.007 C 236.096 304.999,234.420 305.021,232.712 304.065 C 231.990 303.661,228.700 301.925,225.400 300.208 C 222.100 298.491,219.220 296.955,219.000 296.793 C 218.780 296.632,214.870 294.587,210.311 292.250 C 199.067 286.485,200.835 286.318,185.400 294.603 C 182.411 296.207,178.859 298.065,169.634 302.847 C 163.833 305.855,161.890 305.309,162.726 300.907 C 162.966 299.638,163.272 297.970,163.404 297.200 C 163.537 296.430,164.006 293.730,164.446 291.200 C 164.886 288.670,165.401 285.700,165.591 284.600 C 166.661 278.394,166.865 277.205,167.203 275.200 C 169.077 264.090,169.265 264.687,161.474 257.032 C 144.937 240.784,140.800 236.604,140.800 236.141 C 140.800 235.864,140.999 235.201,141.242 234.668 C 141.725 233.608,142.037 233.541,155.500 231.615 C 160.256 230.934,164.065 230.371,166.400 230.003 C 167.610 229.812,170.130 229.451,172.000 229.201 C 181.273 227.960,180.449 228.865,190.042 209.372 C 198.855 191.461,199.208 190.933,201.321 192.500 M18.288 365.162 C 21.395 366.723,23.969 367.554,27.800 368.232 C 32.606 369.083,367.394 369.083,372.200 368.232 C 375.827 367.590,378.386 366.779,381.589 365.257 C 382.805 364.679,383.935 364.145,384.100 364.070 C 384.265 363.995,384.396 365.343,384.390 367.067 C 384.366 374.706,379.691 381.204,372.484 383.616 C 370.250 384.364,366.482 384.381,200.027 384.390 L 29.853 384.400 27.427 383.546 C 20.231 381.012,15.600 374.508,15.600 366.934 C 15.600 365.320,15.685 364.000,15.788 364.000 C 15.891 364.000,17.016 364.523,18.288 365.162 " stroke="none" fill="#040404" fill-rule="evenodd"></path><path id="path1" d="M28.754 57.005 C 23.635 58.409,19.802 61.548,17.684 66.072 C 15.850 69.990,15.930 66.876,15.997 131.500 L 16.000 134.400 91.605 134.400 C 151.346 134.400,167.399 134.505,168.105 134.900 C 170.640 136.317,172.800 139.238,172.800 141.249 C 172.800 141.963,173.275 142.000,182.400 142.000 C 191.684 142.000,192.000 141.974,192.000 141.212 C 192.000 139.360,194.279 136.283,196.484 135.157 C 201.045 132.830,208.000 136.467,208.000 141.180 C 208.000 141.984,208.189 142.000,217.600 142.000 C 227.011 142.000,227.200 141.984,227.200 141.180 C 227.200 139.352,229.268 136.438,231.400 135.262 C 232.501 134.655,238.849 134.584,308.400 134.400 L 384.200 134.200 384.200 102.800 C 384.200 67.502,384.279 68.534,381.244 64.065 C 377.398 58.402,372.733 56.400,363.380 56.400 L 358.000 56.400 358.000 64.180 C 358.000 73.543,357.300 76.956,354.397 81.746 C 347.437 93.229,330.805 97.670,320.738 90.732 C 320.154 90.329,319.498 90.000,319.280 90.000 C 318.863 90.000,313.413 84.773,312.394 83.396 C 308.870 78.631,307.601 73.313,307.600 63.300 L 307.600 56.400 266.400 56.400 L 225.200 56.400 225.186 64.300 C 225.167 74.425,224.483 77.462,221.062 82.600 C 211.871 96.404,192.584 97.853,181.472 85.574 C 176.473 80.050,174.800 74.515,174.800 63.500 L 174.800 56.400 133.600 56.400 L 92.400 56.400 92.400 63.700 C 92.400 79.377,87.574 87.791,76.000 92.292 C 62.841 97.410,47.281 89.944,43.295 76.600 C 42.146 72.756,42.004 71.385,42.002 64.100 L 42.000 56.400 36.300 56.450 C 33.109 56.477,29.787 56.722,28.754 57.005 " stroke="none" fill="#f3737b" fill-rule="evenodd"></path><path id="path2" d="M64.763 16.542 C 61.470 17.592,59.459 19.737,58.522 23.200 C 57.272 27.824,57.969 72.800,59.291 72.800 C 59.461 72.800,59.600 72.998,59.600 73.240 C 59.600 73.482,60.185 74.248,60.900 74.943 C 66.131 80.025,74.003 77.738,75.850 70.600 C 76.701 67.311,76.136 21.200,75.245 21.200 C 75.108 21.200,74.773 20.705,74.502 20.100 C 73.230 17.260,68.234 15.435,64.763 16.542 M197.032 16.806 C 195.025 17.590,192.400 19.765,192.400 20.645 C 192.400 20.914,192.175 21.208,191.900 21.300 C 191.085 21.572,191.181 71.056,192.000 72.636 C 193.314 75.171,195.122 76.528,198.386 77.428 C 200.190 77.925,204.000 77.435,204.000 76.705 C 204.000 76.537,204.255 76.400,204.566 76.400 C 205.430 76.400,208.400 72.811,208.400 71.767 C 208.400 71.261,208.580 70.736,208.800 70.600 C 209.391 70.235,209.343 24.393,208.750 22.919 C 207.697 20.298,207.358 19.736,206.112 18.546 C 203.647 16.190,200.268 15.542,197.032 16.806 M329.800 16.814 C 327.407 17.737,325.894 19.066,324.920 21.098 C 323.911 23.204,323.800 70.708,324.800 72.637 C 326.700 76.303,330.943 78.377,334.746 77.499 C 337.002 76.979,340.400 74.495,340.400 73.366 C 340.400 73.055,340.560 72.800,340.755 72.800 C 341.842 72.800,342.576 27.047,341.550 23.200 C 340.078 17.681,334.878 14.854,329.800 16.814 M172.800 143.555 C 172.800 145.207,170.505 148.387,168.600 149.372 C 167.001 150.200,166.963 150.200,91.500 150.305 L 16.000 150.410 16.000 244.363 C 16.000 336.829,16.013 338.356,16.791 340.877 C 18.285 345.714,22.020 349.753,26.800 351.703 L 29.000 352.600 198.800 352.705 C 314.402 352.776,369.238 352.678,370.600 352.397 C 375.813 351.320,380.192 347.849,382.495 342.965 L 383.800 340.200 383.904 245.305 L 384.008 150.410 308.473 150.305 L 232.937 150.200 231.021 149.000 C 228.977 147.720,227.200 145.111,227.200 143.389 L 227.200 142.400 217.600 142.400 L 208.000 142.400 208.000 143.389 C 208.000 146.721,203.952 150.133,200.000 150.133 C 196.048 150.133,192.000 146.721,192.000 143.389 L 192.000 142.400 182.400 142.400 L 172.800 142.400 172.800 143.555 M204.772 176.855 C 212.283 179.248,213.611 180.883,222.377 198.521 C 226.494 206.806,229.932 213.249,230.318 213.406 C 230.693 213.558,232.260 213.843,233.800 214.039 C 235.340 214.235,237.860 214.584,239.400 214.813 C 240.940 215.043,243.370 215.403,244.800 215.614 C 246.230 215.824,247.940 216.083,248.600 216.188 C 249.260 216.293,251.941 216.670,254.557 217.026 C 263.061 218.183,266.169 219.405,269.784 223.012 C 275.403 228.620,276.646 236.544,273.078 244.000 C 271.755 246.763,271.670 246.854,255.761 262.493 L 248.138 269.985 249.657 278.893 C 250.492 283.792,251.460 289.600,251.807 291.800 C 252.155 294.000,252.610 296.451,252.819 297.246 C 255.978 309.253,247.429 320.583,235.200 320.595 L 230.600 320.600 225.600 318.123 C 222.850 316.761,218.260 314.382,215.400 312.836 C 212.540 311.291,208.850 309.354,207.200 308.531 C 205.550 307.709,204.110 306.938,204.000 306.818 C 203.890 306.698,202.997 306.189,202.014 305.686 L 200.229 304.773 196.014 306.876 C 193.697 308.032,191.710 309.073,191.600 309.189 C 191.490 309.305,189.690 310.278,187.600 311.352 C 185.510 312.426,182.900 313.798,181.800 314.402 C 178.903 315.991,172.032 319.390,170.400 320.041 C 168.556 320.777,161.487 320.788,159.600 320.059 C 150.949 316.715,146.424 310.182,146.930 301.766 C 147.140 298.266,147.247 297.423,147.993 293.400 C 148.197 292.300,148.560 290.230,148.800 288.800 C 149.040 287.370,149.406 285.300,149.614 284.200 C 149.821 283.100,150.273 280.490,150.617 278.400 C 150.962 276.310,151.425 273.522,151.646 272.205 L 152.048 269.810 146.124 264.057 C 126.812 245.304,126.543 244.990,125.395 239.800 C 124.442 235.494,124.947 231.516,126.918 227.800 C 127.151 227.360,127.576 226.550,127.862 226.000 C 128.625 224.532,131.957 221.273,133.813 220.177 C 136.968 218.316,137.559 218.188,153.200 215.982 C 154.850 215.749,157.190 215.395,158.400 215.195 C 159.610 214.995,162.130 214.630,164.000 214.384 C 169.349 213.681,169.774 213.606,170.225 213.294 C 170.603 213.032,174.408 205.457,181.422 191.000 C 185.599 182.393,190.607 177.200,194.732 177.200 C 195.184 177.200,195.664 177.020,195.800 176.800 C 196.139 176.252,203.010 176.294,204.772 176.855 M16.014 366.473 C 16.070 374.772,21.291 381.605,28.925 383.370 C 33.024 384.318,367.175 384.324,371.195 383.377 C 378.790 381.586,384.498 374.004,383.926 366.464 L 383.800 364.802 381.890 365.772 C 379.134 367.171,375.417 368.327,372.200 368.785 C 368.141 369.363,31.922 369.348,27.762 368.769 C 23.794 368.218,19.589 366.765,17.100 365.087 L 16.000 364.346 16.014 366.473 " stroke="none" fill="#f9f9fa" fill-rule="evenodd"></path><path id="path3" d="M323.787 46.800 C 323.787 58.790,323.838 63.695,323.900 57.700 C 323.962 51.705,323.962 41.895,323.900 35.900 C 323.838 29.905,323.787 34.810,323.787 46.800 M177.500 142.299 C 180.195 142.368,184.605 142.368,187.300 142.299 C 189.995 142.230,187.790 142.173,182.400 142.173 C 177.010 142.173,174.805 142.230,177.500 142.299 M212.700 142.299 C 215.395 142.368,219.805 142.368,222.500 142.299 C 225.195 142.230,222.990 142.173,217.600 142.173 C 212.210 142.173,210.005 142.230,212.700 142.299 M53.300 150.300 C 73.925 150.357,107.675 150.357,128.300 150.300 C 148.925 150.243,132.050 150.196,90.800 150.196 C 49.550 150.196,32.675 150.243,53.300 150.300 M309.099 150.299 L 383.998 150.402 384.100 242.901 L 384.203 335.400 384.201 242.800 L 384.200 150.200 309.200 150.198 L 234.200 150.197 309.099 150.299 M198.932 193.300 C 198.215 194.099,195.672 199.139,185.766 219.400 C 182.019 227.063,180.176 228.839,175.400 229.385 C 173.427 229.611,170.785 229.986,165.500 230.789 C 159.503 231.701,156.714 232.106,144.600 233.821 C 139.382 234.560,139.894 235.475,151.834 246.742 C 170.876 264.711,170.037 263.111,167.599 276.800 C 167.384 278.010,167.012 280.170,166.772 281.600 C 166.287 284.491,165.807 287.251,165.186 290.700 C 162.656 304.773,162.832 305.963,167.088 303.538 C 167.920 303.065,171.030 301.421,174.000 299.886 C 176.970 298.351,181.290 296.103,183.600 294.890 C 185.910 293.678,189.240 291.946,191.000 291.043 C 192.760 290.139,194.260 289.265,194.333 289.100 C 194.407 288.935,194.812 288.800,195.233 288.800 C 195.655 288.800,196.000 288.620,196.000 288.400 C 196.000 288.180,196.349 288.000,196.776 288.000 C 197.203 288.000,197.664 287.820,197.800 287.600 C 198.107 287.104,201.362 287.072,202.305 287.556 C 202.687 287.752,203.900 288.337,205.000 288.856 C 206.100 289.375,207.060 289.935,207.133 290.100 C 207.207 290.265,207.612 290.400,208.033 290.400 C 208.455 290.400,208.800 290.580,208.800 290.800 C 208.800 291.020,209.145 291.200,209.567 291.200 C 209.988 291.200,210.393 291.335,210.467 291.500 C 210.540 291.665,211.680 292.354,213.000 293.030 C 215.614 294.370,225.607 299.570,230.400 302.085 C 232.050 302.950,233.571 303.825,233.780 304.029 C 235.035 305.254,237.829 303.332,236.917 301.870 C 236.756 301.612,236.498 300.500,236.344 299.400 C 236.050 297.300,235.438 293.570,234.834 290.200 C 234.637 289.100,234.362 287.480,234.223 286.600 C 234.084 285.720,233.799 284.100,233.589 283.000 C 233.380 281.900,232.927 279.290,232.583 277.200 C 232.239 275.110,231.788 272.410,231.581 271.200 C 230.395 264.266,230.667 263.792,242.294 252.559 C 258.077 237.309,258.400 236.969,258.400 235.613 C 258.400 234.691,258.193 234.373,257.500 234.234 C 254.997 233.730,253.567 233.490,251.100 233.161 C 248.529 232.817,245.791 232.424,240.000 231.565 C 238.570 231.353,236.230 231.008,234.800 230.800 C 233.370 230.592,230.940 230.230,229.400 229.996 C 227.860 229.763,225.700 229.472,224.600 229.349 C 223.500 229.227,222.429 228.963,222.220 228.763 C 222.011 228.563,221.557 228.400,221.211 228.400 C 219.239 228.400,210.000 213.344,210.000 210.131 C 210.000 209.839,209.820 209.600,209.600 209.600 C 209.380 209.600,209.200 209.240,209.200 208.800 C 209.200 208.360,209.020 208.000,208.800 208.000 C 208.580 208.000,208.400 207.640,208.400 207.200 C 208.400 206.760,208.220 206.400,208.000 206.400 C 207.780 206.400,207.600 206.055,207.600 205.633 C 207.600 205.212,207.462 204.807,207.294 204.733 C 207.126 204.660,205.833 202.260,204.421 199.400 C 202.056 194.611,200.660 192.400,200.000 192.400 C 199.857 192.400,199.376 192.805,198.932 193.300 " stroke="none" fill="#fbcb7c" fill-rule="evenodd"></path><path id="path4" d="M63.291 16.468 C 60.827 17.663,58.652 20.304,58.075 22.801 C 57.461 25.465,57.420 68.127,58.030 70.800 C 60.268 80.608,73.885 80.551,76.333 70.723 C 77.116 67.576,76.980 25.151,76.177 22.449 C 74.545 16.953,68.285 14.047,63.291 16.468 M196.200 16.464 C 193.791 17.711,190.617 21.200,191.892 21.200 C 192.064 21.200,192.430 20.705,192.704 20.100 C 195.201 14.604,205.378 15.204,207.959 21.000 C 208.253 21.660,208.652 22.513,208.847 22.895 C 209.431 24.044,209.294 69.293,208.700 71.306 C 206.809 77.713,198.562 79.756,193.803 74.997 C 191.284 72.478,191.400 73.848,191.400 46.554 C 191.400 32.845,191.278 21.938,191.128 22.315 C 190.388 24.180,190.798 70.957,191.568 72.600 C 195.094 80.115,205.667 79.920,208.766 72.284 C 210.015 69.207,209.904 23.614,208.641 21.072 C 206.324 16.405,200.488 14.244,196.200 16.464 M329.000 16.462 C 326.657 17.672,324.905 19.502,324.105 21.574 C 322.912 24.663,323.037 69.815,324.245 72.427 C 327.929 80.389,339.033 79.932,341.765 71.705 C 342.797 68.599,342.543 23.288,341.481 21.157 C 339.140 16.455,333.281 14.251,329.000 16.462 M69.641 16.514 C 73.023 17.693,74.946 19.755,75.878 23.200 C 76.536 25.634,76.606 67.742,75.956 70.154 C 75.141 73.174,72.912 76.400,71.640 76.400 C 71.398 76.400,71.200 76.537,71.200 76.705 C 71.200 76.873,70.300 77.224,69.200 77.486 C 67.183 77.965,63.200 77.447,63.200 76.705 C 63.200 76.537,62.984 76.400,62.719 76.400 C 62.063 76.400,59.600 73.969,59.600 73.322 C 59.600 73.035,59.461 72.800,59.291 72.800 C 58.020 72.800,57.227 26.946,58.433 23.160 C 60.173 17.694,64.932 14.873,69.641 16.514 M335.714 16.633 C 338.590 17.613,340.219 19.385,341.566 23.000 C 342.090 24.405,341.945 69.305,341.410 71.584 C 340.549 75.248,334.669 78.686,331.171 77.571 C 326.799 76.178,324.905 74.087,324.024 69.680 C 323.408 66.601,323.500 26.499,324.129 23.600 C 325.378 17.845,330.403 14.823,335.714 16.633 M28.600 56.800 C 28.096 57.017,28.022 57.144,28.400 57.144 C 28.730 57.144,29.360 56.989,29.800 56.800 C 30.304 56.583,30.378 56.456,30.000 56.456 C 29.670 56.456,29.040 56.611,28.600 56.800 M92.168 64.200 C 92.168 68.600,92.226 70.455,92.298 68.321 C 92.370 66.188,92.370 62.588,92.299 60.321 C 92.227 58.055,92.168 59.800,92.168 64.200 M174.967 64.000 C 174.967 68.290,175.026 70.045,175.098 67.900 C 175.170 65.755,175.170 62.245,175.098 60.100 C 175.026 57.955,174.967 59.710,174.967 64.000 M307.767 63.800 C 307.767 67.980,307.826 69.636,307.898 67.479 C 307.971 65.323,307.970 61.903,307.898 59.879 C 307.825 57.856,307.766 59.620,307.767 63.800 M370.200 56.800 C 370.640 56.989,371.270 57.144,371.600 57.144 C 371.978 57.144,371.904 57.017,371.400 56.800 C 370.960 56.611,370.330 56.456,370.000 56.456 C 369.622 56.456,369.696 56.583,370.200 56.800 M42.168 64.600 C 42.168 69.000,42.226 70.855,42.298 68.721 C 42.370 66.588,42.370 62.988,42.299 60.721 C 42.227 58.455,42.168 60.200,42.168 64.600 M383.862 70.600 C 383.996 71.480,384.172 72.275,384.253 72.367 C 384.556 72.710,384.329 70.568,383.981 69.800 C 383.729 69.242,383.693 69.485,383.862 70.600 M224.909 71.200 C 224.909 72.190,224.987 72.595,225.082 72.100 C 225.178 71.605,225.178 70.795,225.082 70.300 C 224.987 69.805,224.909 70.210,224.909 71.200 M357.693 71.600 C 357.693 72.370,357.775 72.685,357.876 72.300 C 357.976 71.915,357.976 71.285,357.876 70.900 C 357.775 70.515,357.693 70.830,357.693 71.600 M15.701 72.200 C 15.705 73.080,15.787 73.393,15.883 72.895 C 15.979 72.398,15.975 71.678,15.875 71.295 C 15.775 70.913,15.696 71.320,15.701 72.200 M15.789 101.200 C 15.789 116.270,15.839 122.435,15.900 114.900 C 15.961 107.365,15.961 95.035,15.900 87.500 C 15.839 79.965,15.789 86.130,15.789 101.200 M182.200 86.400 C 183.283 87.500,184.260 88.400,184.370 88.400 C 184.480 88.400,183.683 87.500,182.600 86.400 C 181.517 85.300,180.540 84.400,180.430 84.400 C 180.320 84.400,181.117 85.300,182.200 86.400 M65.500 93.893 C 66.435 93.977,67.965 93.977,68.900 93.893 C 69.835 93.809,69.070 93.740,67.200 93.740 C 65.330 93.740,64.565 93.809,65.500 93.893 M198.300 93.893 C 199.235 93.977,200.765 93.977,201.700 93.893 C 202.635 93.809,201.870 93.740,200.000 93.740 C 198.130 93.740,197.365 93.809,198.300 93.893 M331.100 93.893 C 332.035 93.977,333.565 93.977,334.500 93.893 C 335.435 93.809,334.670 93.740,332.800 93.740 C 330.930 93.740,330.165 93.809,331.100 93.893 M15.734 131.600 C 15.734 133.250,15.805 133.925,15.891 133.100 C 15.978 132.275,15.978 130.925,15.891 130.100 C 15.805 129.275,15.734 129.950,15.734 131.600 M204.400 135.725 C 204.400 135.794,204.985 136.379,205.700 137.025 L 207.000 138.200 205.825 136.900 C 204.730 135.688,204.400 135.416,204.400 135.725 M207.444 140.200 C 207.773 141.671,208.002 141.990,207.994 140.967 C 207.991 140.545,207.805 139.930,207.582 139.600 C 207.285 139.162,207.248 139.324,207.444 140.200 M192.267 139.867 C 191.778 140.355,191.992 143.883,192.598 145.334 C 193.527 147.558,196.517 150.030,198.200 149.967 C 198.779 149.945,198.669 149.821,197.800 149.517 C 194.460 148.350,192.225 145.004,192.466 141.532 C 192.540 140.469,192.585 139.600,192.567 139.600 C 192.548 139.600,192.413 139.720,192.267 139.867 M172.460 142.916 C 172.319 145.548,169.863 148.517,167.000 149.517 C 166.094 149.834,166.001 149.945,166.622 149.968 C 169.177 150.067,173.079 145.562,172.692 142.959 L 172.520 141.800 172.460 142.916 M207.651 142.800 C 207.461 145.572,205.074 148.513,202.200 149.517 C 201.294 149.834,201.201 149.945,201.822 149.968 C 204.377 150.067,208.279 145.562,207.892 142.959 C 207.735 141.905,207.714 141.890,207.651 142.800 M227.227 143.062 C 227.167 145.865,230.904 150.061,233.378 149.970 C 234.018 149.946,233.935 149.835,233.000 149.470 C 230.009 148.299,228.577 146.706,227.746 143.624 C 227.302 141.977,227.251 141.922,227.227 143.062 M15.698 244.347 L 15.600 338.895 16.457 341.393 C 16.929 342.767,17.659 344.321,18.080 344.846 C 18.738 345.667,18.723 345.550,17.969 344.011 C 17.488 343.028,16.892 341.678,16.647 341.011 C 16.325 340.138,16.144 313.303,15.998 244.800 L 15.795 149.800 15.698 244.347 M196.138 176.706 C 195.884 176.868,197.622 177.000,200.000 177.000 C 202.378 177.000,204.116 176.868,203.862 176.706 C 203.608 176.544,201.870 176.412,200.000 176.412 C 198.130 176.412,196.392 176.544,196.138 176.706 M191.474 178.515 C 186.769 181.019,185.382 183.059,177.600 198.915 C 171.959 210.409,170.406 213.255,169.600 213.578 L 168.600 213.979 169.600 213.890 C 170.494 213.810,171.387 212.229,178.000 199.037 C 186.667 181.746,187.718 180.339,193.800 177.886 C 194.684 177.530,195.042 177.249,194.600 177.259 C 194.160 177.269,192.753 177.834,191.474 178.515 M206.038 177.786 C 211.091 179.646,214.217 182.833,217.358 189.325 C 217.977 190.604,218.573 191.560,218.683 191.451 C 219.192 190.941,214.847 183.728,212.774 181.641 C 210.590 179.443,206.758 177.172,205.325 177.228 C 204.926 177.244,205.247 177.495,206.038 177.786 M198.522 192.900 C 198.072 193.395,194.256 200.807,190.042 209.372 C 180.449 228.865,181.273 227.960,172.000 229.201 C 170.130 229.451,167.610 229.812,166.400 230.003 C 164.065 230.371,160.256 230.934,155.500 231.615 C 142.037 233.541,141.725 233.608,141.242 234.668 C 140.999 235.201,140.800 235.864,140.800 236.141 C 140.800 236.604,144.937 240.784,161.474 257.032 C 169.265 264.687,169.077 264.090,167.203 275.200 C 166.865 277.205,166.661 278.394,165.591 284.600 C 165.401 285.700,164.886 288.670,164.446 291.200 C 164.006 293.730,163.537 296.430,163.404 297.200 C 163.272 297.970,162.966 299.638,162.726 300.907 C 161.890 305.309,163.833 305.855,169.634 302.847 C 178.859 298.065,182.411 296.207,185.400 294.603 C 200.835 286.318,199.067 286.485,210.311 292.250 C 214.870 294.587,218.780 296.632,219.000 296.793 C 219.220 296.955,222.100 298.491,225.400 300.208 C 228.700 301.925,231.990 303.661,232.712 304.065 C 234.420 305.021,236.096 304.999,236.993 304.007 C 237.737 303.185,237.727 302.872,236.789 297.600 C 236.340 295.080,235.638 290.999,235.206 288.400 C 235.005 287.190,234.642 285.120,234.400 283.800 C 234.158 282.480,233.789 280.365,233.580 279.100 C 233.371 277.835,233.029 275.765,232.820 274.500 C 232.611 273.235,232.248 271.120,232.013 269.800 C 231.245 265.481,232.306 262.762,236.066 259.408 C 237.020 258.557,242.615 253.136,248.500 247.361 C 262.506 233.615,262.443 234.210,250.100 232.372 C 248.725 232.167,246.475 231.831,245.100 231.624 C 243.725 231.417,241.160 231.046,239.400 230.800 C 237.640 230.554,235.120 230.192,233.800 229.995 C 232.480 229.799,229.870 229.438,228.000 229.193 C 220.177 228.170,218.951 227.366,215.976 221.301 C 206.420 201.818,201.895 192.926,201.321 192.500 C 200.326 191.762,199.441 191.888,198.522 192.900 M218.828 192.300 C 218.999 194.148,229.536 213.813,230.400 213.896 C 231.371 213.989,231.374 213.981,230.516 213.615 C 229.883 213.345,228.146 210.229,224.387 202.619 C 219.649 193.028,218.739 191.339,218.828 192.300 M201.057 193.300 C 201.495 193.795,203.009 196.540,204.421 199.400 C 205.833 202.260,207.126 204.660,207.294 204.733 C 207.462 204.807,207.600 205.212,207.600 205.633 C 207.600 206.055,207.780 206.400,208.000 206.400 C 208.220 206.400,208.400 206.760,208.400 207.200 C 208.400 207.640,208.580 208.000,208.800 208.000 C 209.020 208.000,209.200 208.360,209.200 208.800 C 209.200 209.240,209.380 209.600,209.600 209.600 C 209.820 209.600,210.000 209.839,210.000 210.131 C 210.000 213.344,219.239 228.400,221.211 228.400 C 221.557 228.400,222.011 228.563,222.220 228.763 C 222.429 228.963,223.500 229.227,224.600 229.349 C 225.700 229.472,227.860 229.763,229.400 229.996 C 230.940 230.230,233.370 230.592,234.800 230.800 C 236.230 231.008,238.570 231.353,240.000 231.565 C 245.791 232.424,248.529 232.817,251.100 233.161 C 253.567 233.490,254.997 233.730,257.500 234.234 C 258.193 234.373,258.400 234.691,258.400 235.613 C 258.400 236.969,258.077 237.309,242.294 252.559 C 230.667 263.792,230.395 264.266,231.581 271.200 C 231.788 272.410,232.239 275.110,232.583 277.200 C 232.927 279.290,233.380 281.900,233.589 283.000 C 233.799 284.100,234.084 285.720,234.223 286.600 C 234.362 287.480,234.637 289.100,234.834 290.200 C 235.438 293.570,236.050 297.300,236.344 299.400 C 236.498 300.500,236.756 301.612,236.917 301.870 C 237.829 303.332,235.035 305.254,233.780 304.029 C 233.571 303.825,232.050 302.950,230.400 302.085 C 225.607 299.570,215.614 294.370,213.000 293.030 C 211.680 292.354,210.540 291.665,210.467 291.500 C 210.393 291.335,209.988 291.200,209.567 291.200 C 209.145 291.200,208.800 291.020,208.800 290.800 C 208.800 290.580,208.455 290.400,208.033 290.400 C 207.612 290.400,207.207 290.265,207.133 290.100 C 207.060 289.935,206.100 289.375,205.000 288.856 C 203.900 288.337,202.687 287.752,202.305 287.556 C 201.362 287.072,198.107 287.104,197.800 287.600 C 197.664 287.820,197.203 288.000,196.776 288.000 C 196.349 288.000,196.000 288.180,196.000 288.400 C 196.000 288.620,195.655 288.800,195.233 288.800 C 194.812 288.800,194.407 288.935,194.333 289.100 C 194.260 289.265,192.760 290.139,191.000 291.043 C 189.240 291.946,185.910 293.678,183.600 294.890 C 181.290 296.103,176.970 298.351,174.000 299.886 C 171.030 301.421,167.920 303.065,167.088 303.538 C 162.832 305.963,162.656 304.773,165.186 290.700 C 165.807 287.251,166.287 284.491,166.772 281.600 C 167.012 280.170,167.384 278.010,167.599 276.800 C 170.037 263.111,170.876 264.711,151.834 246.742 C 139.894 235.475,139.382 234.560,144.600 233.821 C 156.714 232.106,159.503 231.701,165.500 230.789 C 170.785 229.986,173.427 229.611,175.400 229.385 C 180.176 228.839,182.019 227.063,185.766 219.400 C 198.143 194.087,199.032 192.400,200.000 192.400 C 200.143 192.400,200.619 192.805,201.057 193.300 M164.000 214.400 C 162.549 214.865,164.782 214.882,167.000 214.423 L 168.600 214.092 166.800 214.086 C 165.810 214.083,164.550 214.224,164.000 214.400 M236.400 214.844 C 239.150 215.260,241.670 215.540,242.000 215.466 C 242.330 215.392,241.970 215.226,241.200 215.097 C 235.847 214.199,234.328 214.005,232.954 214.043 C 232.099 214.067,233.650 214.427,236.400 214.844 M158.600 215.200 C 157.547 215.653,159.621 215.653,161.400 215.200 C 162.547 214.908,162.529 214.894,161.000 214.875 C 160.120 214.865,159.040 215.011,158.600 215.200 M153.200 216.000 L 152.200 216.320 153.200 216.337 C 153.750 216.346,154.920 216.205,155.800 216.023 L 157.400 215.692 155.800 215.686 C 154.920 215.683,153.750 215.824,153.200 216.000 M244.600 216.023 C 245.480 216.205,246.650 216.346,247.200 216.337 L 248.200 216.320 247.200 216.000 C 246.650 215.824,245.480 215.683,244.600 215.686 L 243.000 215.692 244.600 216.023 M147.600 216.800 L 146.200 217.095 147.800 217.100 C 148.680 217.103,149.940 216.968,150.600 216.800 L 151.800 216.495 150.400 216.500 C 149.630 216.503,148.370 216.638,147.600 216.800 M250.200 216.823 C 251.080 217.005,252.340 217.143,253.000 217.130 L 254.200 217.105 253.000 216.800 C 252.340 216.632,251.080 216.494,250.200 216.493 L 248.600 216.492 250.200 216.823 M142.200 217.600 L 141.000 217.905 142.400 217.905 C 143.170 217.905,144.340 217.768,145.000 217.600 L 146.200 217.295 144.800 217.295 C 144.030 217.295,142.860 217.432,142.200 217.600 M255.400 217.600 C 257.140 218.043,259.782 218.043,258.400 217.600 C 257.850 217.424,256.680 217.283,255.800 217.287 C 254.278 217.294,254.258 217.310,255.400 217.600 M138.000 218.400 C 137.213 218.909,138.616 218.909,139.800 218.400 C 140.533 218.085,140.516 218.054,139.600 218.034 C 139.050 218.022,138.330 218.187,138.000 218.400 M260.200 218.365 C 260.640 218.573,261.310 218.756,261.688 218.772 C 268.605 219.054,275.880 230.272,274.426 238.411 C 273.385 244.236,272.810 244.993,259.534 258.030 L 247.488 269.861 247.937 271.430 L 248.386 273.000 248.207 271.433 L 248.029 269.866 256.514 261.637 C 273.020 245.630,273.134 245.493,274.613 239.813 C 277.008 230.619,269.867 219.281,260.990 218.182 C 259.796 218.034,259.599 218.080,260.200 218.365 M134.110 220.055 C 127.734 223.748,123.681 232.458,125.251 239.094 C 126.514 244.432,127.236 245.356,140.050 258.013 L 152.009 269.825 151.810 271.813 C 151.665 273.265,151.707 273.531,151.966 272.800 C 152.958 270.002,153.937 271.147,132.774 250.353 C 122.221 239.983,123.219 226.423,135.000 220.108 C 136.320 219.400,137.130 218.827,136.800 218.833 C 136.470 218.840,135.260 219.390,134.110 220.055 M248.448 273.976 C 248.395 275.050,249.075 279.114,249.622 281.000 C 249.888 281.918,249.920 281.730,249.754 280.200 C 249.441 277.296,248.504 272.832,248.448 273.976 M151.018 275.926 C 150.853 277.095,150.813 278.146,150.929 278.262 C 151.214 278.547,151.731 274.987,151.500 274.325 C 151.400 274.036,151.182 274.757,151.018 275.926 M150.182 280.582 C 150.029 281.602,150.002 282.535,150.122 282.655 C 150.242 282.775,150.465 282.039,150.618 281.018 C 150.771 279.998,150.798 279.065,150.678 278.945 C 150.558 278.825,150.335 279.561,150.182 280.582 M250.068 284.000 C 250.062 284.770,250.211 285.760,250.400 286.200 C 250.865 287.282,250.865 285.052,250.400 283.600 C 250.109 282.691,250.079 282.727,250.068 284.000 M149.382 285.382 C 149.229 286.402,149.202 287.335,149.322 287.455 C 149.442 287.575,149.665 286.839,149.818 285.818 C 149.971 284.798,149.998 283.865,149.878 283.745 C 149.758 283.625,149.535 284.361,149.382 285.382 M250.880 288.600 C 250.880 289.260,251.024 290.250,251.200 290.800 C 251.511 291.772,251.520 291.767,251.520 290.600 C 251.520 289.940,251.376 288.950,251.200 288.400 C 250.889 287.428,250.880 287.433,250.880 288.600 M148.689 289.200 C 148.536 289.750,148.427 290.740,148.446 291.400 C 148.477 292.492,148.514 292.458,148.852 291.011 C 149.275 289.206,149.131 287.611,148.689 289.200 M251.687 293.000 C 251.691 293.660,251.832 294.740,252.000 295.400 L 252.305 296.600 252.313 295.200 C 252.317 294.430,252.176 293.350,252.000 292.800 C 251.689 291.830,251.680 291.835,251.687 293.000 M147.852 294.600 C 147.697 295.700,147.397 297.251,147.185 298.046 C 146.584 300.305,146.726 305.422,147.451 307.640 C 148.329 310.325,148.567 309.881,147.810 306.973 C 147.040 304.019,147.043 301.912,147.822 297.457 C 148.163 295.508,148.373 293.618,148.288 293.257 C 148.203 292.896,148.007 293.500,147.852 294.600 M252.704 300.808 C 253.071 308.293,250.555 313.764,245.151 317.231 C 244.061 317.931,243.254 318.587,243.357 318.690 C 244.072 319.405,249.780 313.983,251.161 311.277 C 253.094 307.487,253.874 301.018,252.809 297.600 C 252.637 297.050,252.590 298.494,252.704 300.808 M198.589 304.945 C 198.155 305.245,195.460 306.707,192.600 308.194 C 186.961 311.126,181.738 313.873,176.400 316.717 C 174.530 317.713,171.830 318.939,170.400 319.440 C 168.540 320.093,168.110 320.360,168.890 320.377 C 169.831 320.397,180.337 315.290,188.600 310.797 C 189.920 310.079,193.058 308.423,195.573 307.117 L 200.146 304.742 202.573 306.024 C 203.908 306.729,206.620 308.156,208.600 309.193 C 210.580 310.231,213.370 311.709,214.800 312.477 C 223.288 317.036,228.347 319.599,228.839 319.590 C 229.147 319.584,228.500 319.119,227.400 318.556 C 223.138 316.376,213.085 311.097,204.549 306.555 C 200.172 304.227,199.781 304.121,198.589 304.945 M148.400 310.139 C 148.400 311.817,153.678 317.411,156.496 318.720 C 159.258 320.002,159.353 319.788,156.685 318.295 C 153.961 316.771,151.122 314.082,149.723 311.700 C 148.846 310.207,148.400 309.681,148.400 310.139 M241.901 319.033 C 241.772 319.161,240.797 319.505,239.734 319.797 C 238.346 320.178,238.097 320.339,238.851 320.364 C 239.874 320.399,242.800 319.384,242.800 318.995 C 242.800 318.724,242.183 318.750,241.901 319.033 M159.600 320.000 C 159.930 320.213,160.650 320.373,161.200 320.354 L 162.200 320.320 161.200 320.000 C 159.658 319.506,158.836 319.506,159.600 320.000 M230.000 320.000 C 230.330 320.213,231.050 320.373,231.600 320.354 L 232.600 320.320 231.600 320.000 C 230.058 319.506,229.236 319.506,230.000 320.000 M163.500 320.689 C 164.215 320.778,165.385 320.778,166.100 320.689 C 166.815 320.601,166.230 320.528,164.800 320.528 C 163.370 320.528,162.785 320.601,163.500 320.689 M233.900 320.689 C 234.615 320.778,235.785 320.778,236.500 320.689 C 237.215 320.601,236.630 320.528,235.200 320.528 C 233.770 320.528,233.185 320.601,233.900 320.689 M384.070 336.816 C 383.867 340.922,382.171 344.674,379.128 347.746 C 376.937 349.958,376.739 350.321,378.267 349.319 C 381.277 347.347,384.606 340.612,384.294 337.125 C 384.153 335.549,384.134 335.522,384.070 336.816 M19.589 347.184 C 20.349 348.251,22.800 350.309,22.800 349.880 C 22.800 349.652,19.148 346.000,18.920 346.000 C 18.824 346.000,19.125 346.533,19.589 347.184 M23.954 350.720 C 24.479 351.141,26.033 351.871,27.407 352.343 L 29.905 353.200 200.000 353.200 L 370.095 353.200 372.593 352.343 C 373.967 351.871,375.521 351.141,376.046 350.720 C 376.859 350.068,376.734 350.085,375.200 350.838 C 370.981 352.909,381.662 352.790,199.973 352.795 C 15.416 352.800,29.181 352.962,24.600 350.733 C 23.051 349.979,23.030 349.979,23.954 350.720 M15.600 366.934 C 15.600 374.508,20.231 381.012,27.427 383.546 L 29.853 384.400 200.027 384.390 C 387.818 384.379,372.116 384.577,375.778 382.178 C 377.275 381.197,376.763 381.015,375.150 381.955 C 371.400 384.141,383.433 384.000,200.000 384.000 C 47.652 384.000,30.875 383.938,28.658 383.370 C 21.148 381.446,16.000 374.606,16.000 366.553 L 16.000 364.346 17.100 365.104 C 19.474 366.743,26.173 368.837,28.784 368.757 C 29.815 368.725,29.438 368.572,27.400 368.193 C 23.934 367.549,21.287 366.669,18.288 365.162 C 17.016 364.523,15.891 364.000,15.788 364.000 C 15.685 364.000,15.600 365.320,15.600 366.934 M381.600 365.218 C 378.974 366.561,375.940 367.566,372.400 368.265 L 369.800 368.778 372.260 368.599 C 375.036 368.398,379.372 367.101,381.877 365.723 C 384.068 364.517,384.000 364.482,384.000 366.842 C 384.000 369.336,383.018 373.327,381.955 375.150 C 381.015 376.763,381.197 377.275,382.178 375.778 C 383.866 373.200,385.399 363.846,384.100 364.046 C 383.935 364.072,382.810 364.599,381.600 365.218 M115.300 369.100 C 161.885 369.156,238.115 369.156,284.700 369.100 C 331.285 369.044,293.170 368.998,200.000 368.998 C 106.830 368.998,68.715 369.044,115.300 369.100 M378.900 379.047 C 377.965 380.021,377.200 380.917,377.200 381.037 C 377.200 381.500,379.611 379.508,380.411 378.384 C 381.638 376.662,380.863 377.002,378.900 379.047 " stroke="none" fill="#cea464" fill-rule="evenodd"></path></g></svg>