<svg id="svg" version="1.1" xmlns="http://www.w3.org/2000/svg" xmlns:xlink="http://www.w3.org/1999/xlink" width="25" height="25" viewBox="0, 0, 400,400"><g id="svgg"><path id="path0" d="M87.800 25.653 C 86.920 25.857,85.210 26.214,84.000 26.447 C 82.790 26.680,81.487 27.035,81.105 27.235 C 80.723 27.436,80.138 27.600,79.805 27.600 C 79.472 27.600,79.200 27.780,79.200 28.000 C 79.200 28.220,78.874 28.400,78.475 28.400 C 78.077 28.400,77.364 28.760,76.892 29.200 C 76.420 29.640,75.756 30.000,75.417 30.000 C 75.078 30.000,74.800 30.150,74.800 30.332 C 74.800 30.515,74.305 30.920,73.700 31.232 C 72.349 31.930,66.000 38.292,66.000 38.948 C 66.000 39.210,65.640 39.683,65.200 40.000 C 64.760 40.317,64.400 40.897,64.400 41.288 C 64.400 41.680,64.220 42.000,64.000 42.000 C 63.780 42.000,63.600 42.360,63.600 42.800 C 63.600 43.240,63.420 43.600,63.200 43.600 C 62.980 43.600,62.800 43.836,62.800 44.125 C 62.800 44.414,62.440 45.395,62.000 46.306 C 61.560 47.216,61.200 48.510,61.200 49.181 C 61.200 49.851,61.054 50.400,60.875 50.400 C 60.696 50.400,60.506 51.243,60.452 52.274 C 60.399 53.305,60.245 54.327,60.110 54.546 C 59.975 54.764,59.801 56.126,59.724 57.572 C 59.646 59.017,59.472 60.830,59.336 61.600 C 59.052 63.203,58.962 64.318,58.567 71.113 C 58.410 73.815,58.128 76.121,57.941 76.237 C 57.753 76.353,57.600 77.967,57.600 79.824 C 57.600 81.808,57.435 83.200,57.200 83.200 C 56.963 83.200,56.800 84.667,56.800 86.800 C 56.800 88.780,56.633 90.400,56.428 90.400 C 56.224 90.400,55.957 91.975,55.834 93.900 C 55.712 95.825,55.505 98.885,55.375 100.700 L 55.139 104.000 181.824 104.000 C 307.424 104.000,312.778 104.051,317.400 105.287 C 328.485 108.253,336.164 115.602,339.708 126.638 L 340.595 129.400 340.704 227.300 L 340.813 325.200 342.183 325.200 C 342.936 325.200,343.648 325.355,343.765 325.543 C 344.052 326.008,350.400 326.137,350.400 325.678 C 350.400 325.478,351.665 325.197,353.212 325.054 C 354.758 324.910,356.333 324.637,356.712 324.446 C 359.719 322.934,360.953 322.400,361.438 322.400 C 361.747 322.400,362.000 322.242,362.000 322.049 C 362.000 321.855,362.540 321.473,363.200 321.200 C 363.860 320.927,364.400 320.545,364.400 320.351 C 364.400 320.158,364.643 320.000,364.939 320.000 C 365.513 320.000,370.488 315.124,370.763 314.293 C 370.852 314.022,371.213 313.530,371.565 313.200 C 371.917 312.870,372.460 312.105,372.770 311.500 C 373.081 310.895,373.485 310.400,373.668 310.400 C 373.850 310.400,374.000 310.151,374.000 309.846 C 374.000 309.541,374.269 308.776,374.598 308.146 C 374.926 307.516,375.196 306.595,375.198 306.100 C 375.199 305.605,375.380 305.200,375.600 305.200 C 375.820 305.200,376.000 304.480,376.000 303.600 C 376.000 302.720,376.180 302.000,376.400 302.000 C 376.622 302.000,376.800 300.933,376.800 299.600 C 376.800 298.267,376.978 297.200,377.200 297.200 C 377.437 297.200,377.600 295.733,377.600 293.600 C 377.600 291.467,377.763 290.000,378.000 290.000 C 378.235 290.000,378.400 288.600,378.400 286.600 C 378.400 284.600,378.565 283.200,378.800 283.200 C 379.033 283.200,379.200 281.875,379.200 280.024 C 379.200 278.277,379.380 276.736,379.600 276.600 C 379.820 276.464,380.000 274.934,380.000 273.200 C 380.000 271.466,380.180 269.936,380.400 269.800 C 380.620 269.664,380.800 268.044,380.800 266.200 C 380.800 264.356,380.980 262.736,381.200 262.600 C 381.420 262.464,381.600 260.934,381.600 259.200 C 381.600 257.466,381.780 255.936,382.000 255.800 C 382.220 255.664,382.400 254.044,382.400 252.200 C 382.400 250.356,382.580 248.736,382.800 248.600 C 383.020 248.464,383.200 246.833,383.200 244.976 C 383.200 243.119,383.367 241.600,383.571 241.600 C 383.774 241.600,384.042 240.115,384.164 238.300 C 384.713 230.187,384.883 228.577,385.230 228.220 C 385.434 228.011,385.600 226.245,385.600 224.296 C 385.600 222.217,385.754 220.848,385.971 220.982 C 386.183 221.113,386.439 219.707,386.566 217.706 C 387.118 209.021,387.281 207.376,387.629 207.020 C 387.833 206.811,388.000 205.182,388.000 203.400 C 388.000 201.618,388.167 199.989,388.371 199.780 C 388.575 199.571,388.837 197.960,388.954 196.200 C 389.070 194.440,389.352 191.470,389.581 189.600 C 389.809 187.730,390.090 185.030,390.205 183.600 C 390.319 182.170,390.577 180.280,390.777 179.400 C 390.978 178.520,391.269 175.145,391.425 171.900 C 391.580 168.655,391.863 166.000,392.054 166.000 C 392.244 166.000,392.400 164.380,392.400 162.400 C 392.400 160.267,392.563 158.800,392.800 158.800 C 393.035 158.800,393.200 157.400,393.200 155.400 C 393.200 153.400,393.365 152.000,393.600 152.000 C 393.833 152.000,394.000 150.675,394.000 148.824 C 394.000 147.077,394.180 145.536,394.400 145.400 C 394.620 145.264,394.800 143.633,394.800 141.776 C 394.800 139.792,394.965 138.400,395.200 138.400 C 395.435 138.400,395.600 137.008,395.600 135.024 C 395.600 133.167,395.780 131.536,396.000 131.400 C 396.220 131.264,396.400 129.633,396.400 127.776 C 396.400 125.792,396.565 124.400,396.800 124.400 C 397.035 124.400,397.200 123.000,397.200 121.000 C 397.200 119.000,397.365 117.600,397.600 117.600 C 397.837 117.600,398.000 116.141,398.000 114.024 C 398.000 112.057,398.180 110.336,398.400 110.200 C 398.620 110.064,398.800 108.559,398.800 106.856 C 398.800 105.018,398.991 103.569,399.270 103.290 C 400.624 101.936,399.737 76.400,398.336 76.400 C 398.151 76.400,398.000 75.860,398.000 75.200 C 398.000 74.540,397.820 74.000,397.600 74.000 C 397.380 74.000,397.200 73.680,397.200 73.288 C 397.200 72.897,396.840 72.317,396.400 72.000 C 395.960 71.683,395.600 71.103,395.600 70.712 C 395.600 70.320,395.420 70.000,395.200 70.000 C 394.980 70.000,394.800 69.730,394.800 69.400 C 394.800 69.070,394.620 68.800,394.400 68.800 C 394.180 68.800,394.000 68.621,394.000 68.401 C 394.000 67.799,389.157 63.048,387.900 62.417 C 387.295 62.113,386.800 61.740,386.800 61.587 C 386.800 61.434,385.675 60.825,384.300 60.234 C 382.925 59.643,381.487 58.988,381.105 58.780 C 380.723 58.571,379.958 58.400,379.405 58.400 C 378.852 58.400,378.400 58.220,378.400 58.000 C 378.400 57.780,377.680 57.600,376.800 57.600 C 375.920 57.600,375.200 57.420,375.200 57.200 C 375.200 56.971,373.992 56.800,372.376 56.800 C 370.596 56.800,369.644 56.652,369.800 56.400 C 369.958 56.145,368.737 56.000,366.424 56.000 C 364.275 56.000,362.800 55.837,362.800 55.600 C 362.800 55.365,361.408 55.200,359.424 55.200 C 357.567 55.200,355.936 55.020,355.800 54.800 C 355.664 54.580,354.033 54.400,352.176 54.400 C 350.192 54.400,348.800 54.235,348.800 54.000 C 348.800 53.763,347.333 53.600,345.200 53.600 C 343.067 53.600,341.600 53.437,341.600 53.200 C 341.600 52.965,340.200 52.800,338.200 52.800 C 336.200 52.800,334.800 52.635,334.800 52.400 C 334.800 52.163,333.333 52.000,331.200 52.000 C 329.067 52.000,327.600 51.837,327.600 51.600 C 327.600 51.365,326.200 51.200,324.200 51.200 C 322.200 51.200,320.800 51.035,320.800 50.800 C 320.800 50.563,319.333 50.400,317.200 50.400 C 315.220 50.400,313.600 50.245,313.600 50.056 C 313.600 49.867,312.115 49.677,310.300 49.634 C 308.485 49.591,306.829 49.386,306.620 49.178 C 306.411 48.970,304.757 48.800,302.944 48.800 C 301.131 48.800,299.536 48.620,299.400 48.400 C 299.264 48.180,297.633 48.000,295.776 48.000 C 293.919 48.000,292.400 47.833,292.400 47.629 C 292.400 47.426,290.915 47.162,289.100 47.044 C 287.285 46.926,284.090 46.637,282.000 46.403 C 279.910 46.169,276.850 45.879,275.200 45.758 C 273.550 45.638,272.029 45.373,271.820 45.170 C 271.611 44.966,269.982 44.800,268.200 44.800 C 266.418 44.800,264.789 44.639,264.580 44.442 C 264.371 44.246,262.580 43.980,260.600 43.852 C 256.048 43.557,252.986 43.257,251.200 42.930 C 250.430 42.789,248.990 42.631,248.000 42.578 C 247.010 42.524,244.321 42.293,242.024 42.064 C 239.726 41.835,237.714 41.730,237.551 41.830 C 237.388 41.931,237.142 41.830,237.004 41.607 C 236.866 41.383,235.244 41.200,233.400 41.200 C 231.556 41.200,229.936 41.020,229.800 40.800 C 229.664 40.580,228.033 40.400,226.176 40.400 C 224.192 40.400,222.800 40.235,222.800 40.000 C 222.800 39.765,221.408 39.600,219.424 39.600 C 217.567 39.600,215.936 39.420,215.800 39.200 C 215.664 38.980,214.033 38.800,212.176 38.800 C 210.192 38.800,208.800 38.635,208.800 38.400 C 208.800 38.165,207.400 38.000,205.400 38.000 C 203.400 38.000,202.000 37.835,202.000 37.600 C 202.000 37.363,200.533 37.200,198.400 37.200 C 196.267 37.200,194.800 37.037,194.800 36.800 C 194.800 36.565,193.408 36.400,191.424 36.400 C 189.567 36.400,187.936 36.220,187.800 36.000 C 187.664 35.780,186.033 35.600,184.176 35.600 C 182.192 35.600,180.800 35.435,180.800 35.200 C 180.800 34.963,179.333 34.800,177.200 34.800 C 175.067 34.800,173.600 34.637,173.600 34.400 C 173.600 34.165,172.200 34.000,170.200 34.000 C 168.200 34.000,166.800 33.835,166.800 33.600 C 166.800 33.363,165.333 33.200,163.200 33.200 C 161.067 33.200,159.600 33.037,159.600 32.800 C 159.600 32.565,158.200 32.400,156.200 32.400 C 154.200 32.400,152.800 32.235,152.800 32.000 C 152.800 31.763,151.333 31.600,149.200 31.600 C 147.220 31.600,145.600 31.433,145.600 31.228 C 145.600 31.024,144.025 30.757,142.100 30.634 C 133.690 30.099,131.777 29.913,131.387 29.589 C 131.159 29.400,129.489 29.210,127.675 29.166 C 125.861 29.123,124.282 28.932,124.165 28.743 C 124.048 28.555,122.649 28.400,121.056 28.400 C 119.463 28.400,117.989 28.239,117.780 28.042 C 117.571 27.846,115.780 27.576,113.800 27.443 C 106.384 26.944,104.184 26.744,103.600 26.515 C 103.270 26.386,102.096 26.228,100.991 26.164 C 99.886 26.100,97.461 25.857,95.602 25.624 C 91.684 25.133,90.021 25.139,87.800 25.653 " stroke="none" fill="#04aceb" fill-rule="evenodd"></path><path id="path1" d="M198.400 156.050 C 185.726 158.617,176.252 166.988,172.880 178.600 C 167.183 198.223,179.956 217.408,200.430 219.980 C 204.984 220.552,209.165 220.044,214.800 218.234 C 218.451 217.062,227.966 210.617,228.009 209.288 C 228.014 209.130,228.628 208.324,229.372 207.497 C 234.789 201.485,237.664 187.536,235.039 180.000 C 234.694 179.010,234.409 177.951,234.406 177.646 C 234.393 176.466,230.992 170.358,228.850 167.666 C 221.764 158.766,209.011 153.901,198.400 156.050 " stroke="none" fill="#d2e4f3" fill-rule="evenodd"></path><path id="path2" d="M337.600 228.533 C 335.950 229.478,333.367 231.005,331.859 231.926 C 330.352 232.847,329.060 233.600,328.988 233.600 C 328.917 233.600,327.392 234.500,325.600 235.600 C 323.808 236.700,322.283 237.600,322.212 237.600 C 322.140 237.600,320.869 238.337,319.388 239.237 C 317.906 240.137,316.132 241.189,315.447 241.575 C 314.761 241.960,311.500 243.860,308.200 245.797 C 304.900 247.733,301.570 249.670,300.800 250.101 C 300.030 250.533,299.220 251.027,299.000 251.200 C 298.780 251.373,297.925 251.894,297.100 252.357 C 294.532 253.800,293.077 254.642,290.800 256.004 C 288.480 257.392,277.875 263.601,275.753 264.814 C 275.068 265.206,273.294 266.263,271.812 267.163 C 270.331 268.063,269.065 268.800,269.000 268.800 C 268.935 268.800,267.669 269.537,266.188 270.437 C 264.706 271.337,262.932 272.391,262.247 272.779 C 261.561 273.167,259.380 274.435,257.400 275.597 C 255.420 276.759,251.640 278.973,249.000 280.519 C 246.360 282.064,242.868 284.128,241.240 285.104 C 239.613 286.081,237.678 287.222,236.940 287.640 C 233.978 289.319,232.858 289.969,229.548 291.929 C 225.092 294.569,220.953 296.482,217.200 297.637 C 212.239 299.163,198.942 298.833,197.020 297.136 C 196.811 296.951,196.344 296.800,195.981 296.800 C 193.768 296.800,186.860 292.511,181.289 287.679 C 179.591 286.206,177.681 284.550,177.045 284.000 C 176.409 283.450,175.689 282.818,175.444 282.597 C 175.200 282.375,173.654 281.025,172.010 279.597 C 170.365 278.168,168.818 276.820,168.571 276.600 C 168.324 276.380,166.886 275.120,165.375 273.800 C 163.863 272.480,161.708 270.590,160.586 269.600 C 159.463 268.610,158.017 267.346,157.372 266.792 C 154.257 264.114,139.074 250.847,136.632 248.669 C 122.962 236.477,117.618 233.505,107.800 232.636 C 104.665 232.359,96.599 233.176,94.600 233.974 C 93.499 234.413,91.598 235.218,90.400 235.754 C 89.087 236.340,83.169 239.926,82.400 240.601 C 82.070 240.890,77.660 244.124,72.600 247.787 C 67.540 251.450,62.950 254.787,62.400 255.203 C 61.311 256.026,52.866 262.151,50.055 264.156 C 49.096 264.840,46.036 267.066,43.255 269.102 C 40.475 271.137,37.761 273.117,37.224 273.502 C 36.687 273.886,35.247 274.936,34.024 275.836 C 30.932 278.110,26.134 281.596,20.585 285.600 C 17.993 287.470,14.866 289.737,13.636 290.637 C 2.862 298.524,0.775 300.000,0.398 300.000 C -0.272 300.000,0.029 352.477,0.700 352.700 C 0.975 352.792,1.200 353.482,1.200 354.233 C 1.200 354.985,1.380 355.600,1.600 355.600 C 1.820 355.600,2.000 355.878,2.000 356.217 C 2.000 356.556,2.360 357.220,2.800 357.692 C 3.240 358.164,3.600 358.787,3.600 359.075 C 3.600 359.364,3.780 359.600,4.000 359.600 C 4.220 359.600,4.400 359.888,4.400 360.240 C 4.400 360.591,4.940 361.383,5.600 362.000 C 6.260 362.617,6.800 363.284,6.800 363.482 C 6.800 363.910,9.389 366.800,9.772 366.800 C 9.917 366.800,10.480 367.243,11.021 367.785 C 11.563 368.327,12.860 369.265,13.903 369.870 C 14.946 370.475,15.860 371.112,15.933 371.285 C 16.007 371.458,16.412 371.600,16.833 371.600 C 17.255 371.600,17.600 371.780,17.600 372.000 C 17.600 372.220,18.140 372.400,18.800 372.400 C 19.460 372.400,20.000 372.560,20.000 372.756 C 20.000 373.130,21.644 373.494,25.000 373.862 C 26.100 373.983,27.198 374.243,27.440 374.440 C 28.072 374.954,313.083 374.914,313.401 374.399 C 313.536 374.180,314.389 374.000,315.295 374.000 C 316.886 374.000,319.052 373.480,320.495 372.751 C 320.877 372.558,321.426 372.400,321.715 372.400 C 322.455 372.400,324.393 371.461,324.397 371.100 C 324.399 370.935,324.760 370.800,325.200 370.800 C 325.640 370.800,326.000 370.620,326.000 370.400 C 326.000 370.180,326.288 370.000,326.640 370.000 C 326.991 370.000,327.783 369.460,328.400 368.800 C 329.017 368.140,329.719 367.600,329.960 367.600 C 330.202 367.600,330.400 367.420,330.400 367.200 C 330.400 366.980,330.601 366.800,330.846 366.800 C 331.315 366.800,334.400 363.604,334.400 363.118 C 334.400 362.963,334.841 362.395,335.380 361.856 C 335.919 361.317,336.749 360.049,337.224 359.038 C 337.699 358.027,338.248 357.200,338.444 357.200 C 338.640 357.200,338.800 356.876,338.800 356.480 C 338.800 356.084,338.953 355.589,339.141 355.380 C 339.329 355.171,339.717 354.100,340.003 353.000 C 340.290 351.900,340.702 350.770,340.920 350.489 C 341.515 349.722,341.843 325.200,341.258 325.200 C 340.921 325.200,340.777 312.440,340.702 276.007 L 340.600 226.814 337.600 228.533 " stroke="none" fill="#04ccb4" fill-rule="evenodd"></path><path id="path3" d="M27.200 104.100 C 27.200 104.265,26.120 104.400,24.800 104.400 C 23.467 104.400,22.400 104.578,22.400 104.800 C 22.400 105.020,21.860 105.200,21.200 105.200 C 20.540 105.200,20.000 105.380,20.000 105.600 C 20.000 105.820,19.645 106.000,19.212 106.000 C 18.460 106.000,17.921 106.260,14.146 108.443 C 11.750 109.829,7.600 113.191,7.600 113.745 C 7.600 113.884,6.959 114.674,6.176 115.499 C 5.393 116.325,4.458 117.630,4.097 118.400 C 3.737 119.170,3.342 119.890,3.221 120.000 C 2.625 120.539,1.200 123.787,1.200 124.604 C 1.200 125.115,0.975 125.608,0.700 125.700 C 0.037 125.921,-0.254 300.000,0.409 300.000 C 0.776 300.000,2.874 298.515,13.636 290.637 C 14.866 289.737,17.993 287.470,20.585 285.600 C 26.134 281.596,30.932 278.110,34.024 275.836 C 35.247 274.936,36.687 273.886,37.224 273.502 C 37.761 273.117,40.475 271.137,43.255 269.102 C 46.036 267.066,49.096 264.840,50.055 264.156 C 52.866 262.151,61.311 256.026,62.400 255.203 C 62.950 254.787,67.540 251.450,72.600 247.787 C 77.660 244.124,82.070 240.890,82.400 240.601 C 83.182 239.914,89.081 236.345,90.500 235.700 C 91.105 235.425,92.050 235.020,92.600 234.800 C 93.150 234.580,94.005 234.232,94.500 234.027 C 96.534 233.185,104.539 232.348,107.800 232.636 C 117.618 233.505,122.962 236.477,136.632 248.669 C 139.074 250.847,154.257 264.114,157.372 266.792 C 158.017 267.346,159.463 268.610,160.586 269.600 C 161.708 270.590,163.863 272.480,165.375 273.800 C 166.886 275.120,168.324 276.380,168.571 276.600 C 169.118 277.088,174.550 281.817,176.153 283.200 C 176.790 283.750,177.511 284.382,177.756 284.606 C 185.169 291.372,193.282 296.800,195.981 296.800 C 196.344 296.800,196.811 296.951,197.020 297.136 C 198.942 298.833,212.239 299.163,217.200 297.637 C 220.953 296.482,225.092 294.569,229.548 291.929 C 232.858 289.969,233.978 289.319,236.940 287.640 C 237.678 287.222,239.613 286.081,241.240 285.104 C 242.868 284.128,246.360 282.064,249.000 280.519 C 251.640 278.973,255.420 276.759,257.400 275.597 C 259.380 274.435,261.561 273.167,262.247 272.779 C 262.932 272.391,264.706 271.337,266.188 270.437 C 267.669 269.537,268.935 268.800,269.000 268.800 C 269.065 268.800,270.331 268.063,271.812 267.163 C 273.294 266.263,275.068 265.206,275.753 264.814 C 277.875 263.601,288.480 257.392,290.800 256.004 C 293.077 254.642,294.532 253.800,297.100 252.357 C 297.925 251.894,298.780 251.373,299.000 251.200 C 299.220 251.027,300.030 250.533,300.800 250.101 C 301.570 249.670,304.900 247.733,308.200 245.797 C 311.500 243.860,314.761 241.960,315.447 241.575 C 316.132 241.189,317.906 240.137,319.388 239.237 C 320.869 238.337,322.140 237.600,322.212 237.600 C 322.283 237.600,323.808 236.700,325.600 235.600 C 327.392 234.500,328.922 233.600,329.000 233.600 C 329.078 233.600,330.582 232.716,332.342 231.636 C 334.103 230.555,336.731 229.007,338.184 228.194 L 340.824 226.718 340.703 178.059 L 340.582 129.400 339.702 126.638 C 335.500 113.459,325.766 105.814,311.400 104.407 C 306.289 103.907,27.200 103.605,27.200 104.100 M212.400 156.184 C 215.547 157.190,218.382 158.357,218.800 158.820 C 218.910 158.942,219.630 159.338,220.400 159.700 C 227.290 162.939,235.963 175.535,236.010 182.370 C 236.015 183.157,236.205 184.603,236.431 185.585 C 237.684 191.025,233.962 203.036,229.422 208.200 C 228.648 209.080,228.012 209.928,228.008 210.084 C 227.988 210.818,221.050 215.868,218.200 217.223 C 210.986 220.653,201.725 221.642,195.611 219.635 C 194.212 219.176,192.893 218.800,192.680 218.800 C 191.861 218.800,185.714 215.440,184.000 214.055 C 176.359 207.880,172.507 201.097,171.160 191.444 C 170.093 183.807,173.127 173.121,177.872 167.801 C 178.657 166.921,179.591 165.840,179.949 165.400 C 182.432 162.342,189.655 157.725,193.523 156.723 C 194.335 156.512,195.900 156.089,197.000 155.782 C 199.851 154.988,209.438 155.238,212.400 156.184 " stroke="none" fill="#04ebd3" fill-rule="evenodd"></path><path id="path4" d="M197.000 155.782 C 195.900 156.089,194.335 156.512,193.523 156.723 C 189.655 157.725,182.432 162.342,179.949 165.400 C 179.591 165.840,178.657 166.921,177.872 167.801 C 171.635 174.794,169.336 187.443,172.454 197.600 C 176.221 209.866,188.209 219.791,199.800 220.241 L 202.600 220.349 199.200 219.820 C 174.167 215.927,163.003 187.188,178.844 167.419 C 191.448 151.692,216.229 151.814,228.850 167.666 C 231.106 170.501,234.400 176.498,234.400 177.772 C 234.400 178.146,234.580 178.788,234.799 179.199 C 235.019 179.609,235.358 180.902,235.553 182.072 C 235.899 184.156,235.907 184.166,235.953 182.570 C 236.147 175.821,227.431 163.006,220.400 159.700 C 219.630 159.338,218.910 158.942,218.800 158.820 C 218.382 158.357,215.547 157.190,212.400 156.184 C 209.438 155.238,199.851 154.988,197.000 155.782 M236.090 188.000 C 236.095 191.600,236.115 191.690,236.475 189.720 C 236.716 188.398,236.715 187.012,236.470 185.920 C 236.131 184.403,236.086 184.649,236.090 188.000 M235.496 193.805 C 233.947 204.229,226.130 213.488,214.800 218.319 C 214.070 218.631,213.991 218.753,214.509 218.773 C 216.413 218.846,227.972 211.405,228.008 210.084 C 228.012 209.928,228.648 209.080,229.422 208.200 C 232.510 204.688,236.216 196.082,235.923 193.107 C 235.810 191.969,235.755 192.060,235.496 193.805 M211.848 219.086 C 211.690 219.243,210.085 219.582,208.281 219.840 C 205.164 220.284,205.107 220.310,207.138 220.354 C 209.038 220.395,213.600 219.419,213.600 218.972 C 213.600 218.685,212.154 218.780,211.848 219.086 " stroke="none" fill="#56ecde" fill-rule="evenodd"></path></g></svg>